{"title":"MGS4.LE.Bonus.Disc.Part01.Hideo.Kojima_s.Gene.mkv","uid":12436569,"size":1051035153,"categoryP":"video","categoryS":"other","magnet":"?xt=urn:btih:f4192d350b971ccfa8e6f52ebc3c812a54406c97&amp;dn=MGS4.LE.Bonus.Disc.Part01.Hideo.Kojima_s.Gene.mkv&amp;tr=udp%3A%2F%2Ftracker.openbittorrent.com%3A80&amp;tr=udp%3A%2F%2Fopen.demonii.com%3A1337&amp;tr=udp%3A%2F%2Ftracker.coppersurfer.tk%3A6969&amp;tr=udp%3A%2F%2Fexodus.desync.com%3A6969","seeders":0,"leechers":0,"uploader":"evandromac","files":1,"time":1442519599,"description":"Format                                   : Matroska\nFormat version                           : Version 2\nFile size                                : 1 002 MiB\nDuration                                 : 36mn 24s\nOverall bit rate                         : 3 849 Kbps\nEncoded date                             : UTC \nWriting application                      : HandBrake 0.10.2 2015060900\nWriting library                          : Lavf55.12.0\n\nVideo\nID                                       : 1\nFormat                                   : AVC\nFormat/Info                              : Advanced Video Codec\nFormat profile                           : &lt;a class=&quot;__cf_email__&quot; href=&quot;/cdn-cgi/l/email-protection&quot; data-cfemail=&quot;eea6878986aea2dac0df&quot;&gt;[email&amp;#160;protected]&lt;/a&gt;&lt;script data-cfhash='f9e31' type=&quot;text/javascript&quot;&gt;\n/* &lt;![CDATA[ */!function(){try{var t=&quot;currentScript&quot;in document?document.currentScript:function(){for(var t=document.getElementsByTagName(&quot;script&quot;),e=t.length;e--;)if(t[e].getAttribute(&quot;data-cfhash&quot;))return t[e]}();if(t&amp;&amp;t.previousSibling){var e,r,n,i,c=t.previousSibling,a=c.getAttribute(&quot;data-cfemail&quot;);if(a){for(e=&quot;&quot;,r=parseInt(a.substr(0,2),16),n=2;a.length-n;n+=2)i=parseInt(a.substr(n,2),16)^r,e+=String.fromCharCode(i);e=document.createTextNode(e),c.parentNode.replaceChild(e,c)}t.parentNode.removeChild(t);}}catch(u){}}()/* ]]&gt; */&lt;/script&gt;\nFormat settings, CABAC                   : Yes\nFormat settings, ReFrames                : 4 frames\nCodec ID                                 : V_MPEG4/ISO/AVC\nDuration                                 : 36mn 24s\nBit rate                                 : 3 325 Kbps\nWidth                                    : 1 920 pixels\nHeight                                   : 1 080 pixels\nDisplay aspect ratio                     : 16:9\nFrame rate mode                          : Constant\nFrame rate                               : 29.970 fps\nColor space                              : YUV\nChroma subsampling                       : 4:2:0\nBit depth                                : 8 bits\nScan type                                : Progressive\nBits/(Pixel*Frame)                       : 0.054\nStream size                              : 866 MiB (86%)\nWriting library                          : x264 core 142 r2479 dd79a61\nDefault                                  : Yes\nForced                                   : No\nColor range                              : Limited\nColor primaries                          : BT.709\nTransfer characteristics                 : BT.709\nMatrix coefficients                      : BT.709\n\nAudio\nID                                       : 2\nFormat                                   : AC-3\nFormat/Info                              : Audio Coding 3\nMode extension                           : CM (complete main)\nFormat settings, Endianness              : Big\nCodec ID                                 : A_AC3\nDuration                                 : 36mn 24s\nBit rate mode                            : Constant\nBit rate                                 : 448 Kbps\nChannel(s)                               : 2 channels\nChannel positions                        : Front: L R\nSampling rate                            : 48.0 KHz\nCompression mode                         : Lossy\nStream size                              : 117 MiB (12%)\nTitle                                    : Stereo\nLanguage                                 : Japanese\nDefault                                  : Yes\nForced                                   : No\n\nText\nID                                       : 3\nFormat                                   : PGS\nCodec ID                                 : S_HDMV/PGS\nCodec ID/Info                            : Picture based subtitle format used on BDs/HD-DVDs\nLanguage                                 : English\nDefault                                  : Yes\nForced                                   : No","torrent":{"xt":"urn:btih:f4192d350b971ccfa8e6f52ebc3c812a54406c97","amp;dn":"MGS4.LE.Bonus.Disc.Part01.Hideo.Kojima_s.Gene.mkv","amp;tr":["udp%3A%2F%2Ftracker.openbittorrent.com%3A80","udp%3A%2F%2Fopen.demonii.com%3A1337","udp%3A%2F%2Ftracker.coppersurfer.tk%3A6969","udp%3A%2F%2Fexodus.desync.com%3A6969"],"infoHash":"f4192d350b971ccfa8e6f52ebc3c812a54406c97","infoHashBuffer":{"type":"Buffer","data":[244,25,45,53,11,151,28,207,168,230,245,46,188,60,129,42,84,64,108,151]},"announce":[],"urlList":[]}}